<?xml version="1.0" standalone="no"?>
<!DOCTYPE svg PUBLIC "-//W3C//DTD SVG 20010904//EN"
 "http://www.w3.org/TR/2001/REC-SVG-20010904/DTD/svg10.dtd">
<svg version="1.0" xmlns="http://www.w3.org/2000/svg"
 width="500.000000pt" height="500.000000pt" viewBox="0 0 500.000000 500.000000"
 preserveAspectRatio="xMidYMid meet">

<g transform="translate(0.000000,500.000000) scale(0.100000,-0.100000)"
fill="#000000" stroke="none">
<path d="M2410 3830 c-166 -19 -344 -89 -480 -191 -181 -135 -311 -326 -372
-549 -20 -74 -23 -107 -22 -250 0 -137 4 -179 22 -245 22 -81 115 -285 129
-285 4 0 80 170 167 378 88 207 175 409 195 447 63 123 185 226 336 281 45 17
95 19 490 24 l439 5 -64 69 c-216 232 -531 350 -840 316z"/>
<path d="M3482 3202 c-67 -67 -170 -118 -267 -132 -38 -5 -215 -10 -393 -10
-414 0 -393 8 -478 -189 l-41 -96 484 -3 c265 -1 483 -5 483 -8 0 -3 -12 -26
-27 -51 -63 -109 -202 -203 -328 -223 -33 -5 -194 -10 -358 -10 -273 0 -301
-2 -335 -19 -20 -10 -47 -30 -60 -43 -21 -23 -255 -559 -247 -567 11 -11 113
26 151 55 l45 35 71 -26 c288 -104 604 -71 865 91 108 67 265 226 322 326 128
228 170 471 122 703 -15 73 -16 93 -6 105 18 21 57 100 53 108 -2 4 -27 -17
-56 -46z"/>
<path d="M2512 1580 c-63 -15 -102 -70 -102 -145 0 -105 54 -159 153 -152 62
4 92 22 81 50 -5 15 -9 15 -34 2 -42 -22 -85 -19 -117 9 -25 22 -28 31 -28 84
0 51 4 65 25 87 25 27 49 29 135 14 29 -6 32 29 3 40 -41 15 -82 19 -116 11z"/>
<path d="M1230 1430 l0 -150 30 0 30 0 0 65 0 65 65 0 c63 0 65 1 65 25 0 24
-2 25 -65 25 l-65 0 0 40 0 40 70 0 c63 0 70 2 70 20 0 19 -7 20 -100 20
l-100 0 0 -150z"/>
<path d="M1480 1430 l0 -150 25 0 25 0 0 150 0 150 -25 0 -25 0 0 -150z"/>
<path d="M1600 1430 l0 -150 100 0 c93 0 100 1 100 20 0 18 -7 20 -75 20 l-75
0 0 45 0 45 70 0 c63 0 70 2 70 20 0 18 -7 20 -70 20 l-70 0 0 45 0 45 75 0
c68 0 75 2 75 20 0 19 -7 20 -100 20 l-100 0 0 -150z"/>
<path d="M1850 1430 l0 -150 100 0 c93 0 100 1 100 20 0 17 -8 19 -72 22 l-73
3 -3 128 -3 127 -24 0 -25 0 0 -150z"/>
<path d="M2090 1429 l0 -151 89 4 c125 6 166 37 177 134 6 60 -16 108 -65 141
-29 19 -47 23 -117 23 l-84 0 0 -151z m163 99 c36 -19 46 -40 47 -96 0 -63
-26 -97 -83 -107 -70 -14 -72 -12 -75 108 l-3 107 46 0 c26 0 56 -5 68 -12z"/>
<path d="M2710 1430 l0 -150 25 0 c24 0 25 2 25 65 l0 65 33 0 c45 0 63 -16
84 -75 16 -42 23 -51 47 -53 25 -3 27 -1 21 20 -15 48 -44 108 -54 108 -5 0 4
13 20 29 37 38 39 82 4 116 -22 23 -32 25 -115 25 l-90 0 0 -150z m161 100
c11 -6 19 -21 19 -35 0 -31 -26 -45 -84 -45 l-46 0 0 45 0 45 46 0 c25 0 54
-5 65 -10z"/>
<path d="M3086 1528 c-13 -29 -42 -93 -65 -142 -22 -49 -41 -93 -41 -97 0 -5
11 -9 24 -9 19 0 28 8 37 35 l13 35 78 0 78 0 14 -35 c12 -27 21 -35 41 -35
14 0 24 3 22 8 -2 4 -32 71 -68 150 -55 124 -66 142 -87 142 -18 0 -28 -11
-46 -52z m104 -134 c0 -2 -25 -4 -55 -4 -30 0 -55 4 -55 9 0 5 12 35 26 67
l26 59 29 -64 c16 -35 29 -65 29 -67z"/>
<path d="M3330 1430 l0 -150 25 0 c24 0 25 2 25 65 l0 65 65 0 c63 0 65 1 65
25 0 24 -2 25 -65 25 l-65 0 0 40 0 40 70 0 c63 0 70 2 70 20 0 19 -7 20 -95
20 l-95 0 0 -150z"/>
<path d="M3540 1560 c0 -17 7 -20 50 -20 l50 0 0 -130 0 -130 30 0 30 0 0 130
0 130 50 0 c43 0 50 3 50 20 0 19 -7 20 -130 20 -123 0 -130 -1 -130 -20z"/>
</g>
</svg>
